<svg version="1.2" xmlns="http://www.w3.org/2000/svg" viewBox="0 0 650 650" width="650" height="650">
	<title>logo</title>
	<style>
		.s0 { fill: #000000 } 
	</style>
	<path id="Path 0" fill-rule="evenodd" class="s0" d="m585 17.1c1.4 0 3.9 0.8 5.5 1.8 1.6 1.1 3.6 3.1 4.3 4.5 0.9 1.9 0.9 3.7 0.2 6.8-0.5 2.4-1.7 9.7-2.5 16.3-0.9 6.6-3.2 21-5.1 32-2 11-5.1 27-7 35.5-1.9 8.5-5.8 24.5-8.5 35.5-2.8 11-7.1 27.2-9.6 36-2.5 8.8-6.7 23-9.4 31.5-2.7 8.5-7 21.1-9.5 28-2.6 6.9-6.6 17.4-9.1 23.5-2.5 6.1-7.6 17.3-11.3 25-3.8 7.7-8.9 17.4-16 29v105.3c0 98.8-0.1 105.3-1.7 107-1.7 1.7-7.6 1.8-222.3 3.2l-35.7 15.6c-19.7 8.6-48.4 21.2-63.8 27.9-15.4 6.7-49.4 21.6-75.5 32.9-45 19.6-47.6 20.7-50.3 19.4-1.5-0.7-3-2-3.3-2.8-0.2-0.8-0.5-2.9-0.5-4.5-0.1-1.6 3.2-22.6 14.6-90l0.6-475 4.4-4.6 430.5 0.1 2 2.8c1.2 1.5 2.2 3.1 2.3 3.6 0.1 0.5 7.2-3.9 15.7-9.7 8.5-5.8 25.2-16.4 37-23.6 12.2-7.3 22.6-13 24-13zm-47 45.2c-5.8 3.8-14.1 9.5-18.5 12.6-4.4 3-11.4 8-15.5 11-4.1 3.1-8 6-8.8 6.6-1 0.8-0.1 4.4 4.7 18.5 3.3 9.6 6 18.4 6.1 19.5 0.1 1.1 0.2 2.6 0.1 3.3 0 0.6-1 2.1-2.1 3.2-1.1 1.1-3.3 2-5 2-1.6 0-3.8-0.8-4.8-1.7-1-1-4.2-9.1-7.2-18-4.5-13.2-5.8-16-7-15.3-0.8 0.4-10.7 8.2-22 17.3-11.3 9-26.3 21.5-33.5 27.8-7.1 6.3-18.1 16.3-24.4 22.4l-11.4 11c18.1 54.3 23.3 70.9 23.3 72 0 1.1-0.7 3-1.5 4.3-1.1 1.6-2.5 2.2-5.2 2.2-2.2 0-4.6-0.8-5.6-1.8-1-0.9-6.3-15.3-11.7-31.9-6-18.2-10.5-30.3-11.2-30.3-0.7 0-4.4 3.9-8.3 8.7-3.8 4.9-9.3 12.2-12.1 16.3-2.8 4.1-7 11.1-9.2 15.5-2.3 4.4-4.8 11-5.6 14.8-1.3 5.3-1.4 8.4-0.7 14.5 0.6 4.2 2.8 16.9 5 28.2 2.3 11.3 5.3 29.3 6.9 40.1 1.5 10.8 3 20.1 3.5 20.5 0.4 0.5 1.1 0.5 1.6-0.1 0.5-0.5 9-13.3 19-28.2 9.9-15 19-27.7 20.1-28.3 1.1-0.6 3.4-0.8 5-0.5 1.9 0.3 3.6 1.5 4.7 3.3 1 1.8 1.4 3.6 1 5.5-0.4 1.5-8.8 14.8-18.7 29.7-9.9 14.9-18 27.5-18 28 0 0.5 0.5 1 1 1 0.5 0 8.5-2 17.8-4.5 9.2-2.5 27.5-6.8 40.7-9.5 13.2-2.8 26.8-5.9 30.3-7 3.4-1.1 7.9-3.1 9.9-4.4 2.1-1.3 6.7-5.4 10.3-9.2 3.6-3.8 9.5-11.4 13.2-16.9 3.6-5.5 9.5-15.9 13.1-23 3.6-7.1 9.2-19.3 12.5-27 3.2-7.7 7.9-19.5 10.3-26.2 2.4-6.8 4.2-12.4 3.9-12.6-0.3-0.2-11.3 0.4-24.5 1.4-21.1 1.6-24.3 1.6-26.3 0.4-1.2-0.8-2.5-2.5-2.8-3.8-0.3-1.2-0.3-3.2 0-4.5 0.3-1.2 1.6-2.9 2.8-3.7 1.6-0.9 8.7-1.9 22.3-2.9 11-0.9 23.1-1.8 27-2.1l7-0.6c1.8-5.7 4.8-16.2 7.9-26.9 3.1-10.7 8.3-30.3 11.6-43.5 3.2-13.2 7.2-30.3 8.9-38 1.6-7.7 3.7-18.3 4.6-23.5 0.9-5.2 2.5-15.1 3.6-22 1-6.9 1.9-13.7 1.9-15.3 0-1.5-0.3-2.7-0.8-2.6-0.4 0-7 3.9-14.7 8.6-7.7 4.7-18.7 11.7-24.5 15.6zm-454.9 472.2c-10.1 62-13 80.1-12.8 80.3 0.1 0.1 39.8-17.1 88.2-38.2 48.4-21.1 91.6-40.1 96-42.1 4.4-2 12.4-5.5 17.7-7.6l9.8-3.9h211c0-140.3-0.2-181-0.5-181-0.3 0-2.9 2.2-5.8 5-2.8 2.7-7.7 6.3-10.7 7.9-3 1.6-8.9 3.9-13 5-4.1 1.1-17.2 4.1-29 6.6-11.8 2.4-31 7-42.5 10-11.5 3.1-23.7 6-27 6.6-3.3 0.5-6.2 1.1-6.5 1.3-0.3 0.2-8.6 12.5-18.5 27.4-11.1 16.7-19.1 27.6-20.8 28.6-2.4 1.4-12.5 1.6-92.2 1.6-69.6 0-90.1-0.3-92-1.2-1.4-0.7-2.9-2.3-3.5-3.5-0.5-1.3-1-2.9-1-3.5-0.1-0.7 0.8-2.5 2-4l2-2.8h177l34-52c-2.3-8.1-4.5-21.1-6.4-34-1.9-12.9-4.1-26.5-4.8-30.3l-1.3-6.7h-197.5c-3.9-3.9-5-6.2-5-7.7 0-1.6 0.9-3.8 2.2-5l2.3-2.3h195c-1.1-5.8-1.9-10.4-2.5-14-0.7-3.6-1.2-10.5-1.2-15.5 0-7.2 0.5-10.5 2.6-16.5 1.5-4.1 4.3-10.4 6.3-14 2-3.6 5.9-10.1 8.8-14.5 2.8-4.4 9.2-12.9 14.2-19 5-6 12.9-15 17.6-20l8.4-9c-192.3-0.8-248.9-1.3-249.7-1.7-0.8-0.4-2.1-1.9-2.8-3.3-0.6-1.4-1.2-3.1-1.2-3.7-0.1-0.7 0.8-2.5 2-4l2-2.8h266c14.3-12.8 22.8-20.2 28-24.6 5.2-4.4 15.1-12.5 22-18 6.9-5.5 19.4-15.1 27.7-21.4 11.8-8.9 15.3-12 15.3-13.7v-2.3h-409.8z"/>
</svg>