<svg version="1.2" xmlns="http://www.w3.org/2000/svg" viewBox="0 0 600 600" width="600" height="600">
	<title>logo-negativo</title>
	<style>
		.s0 { fill: #000000 } 
	</style>
	<path id="Path 0" class="s0" d="m532 26.3c-3 1.8-7.5 4.5-10 6.1-2.5 1.6-10.1 6.7-17 11.3-6.9 4.7-14.3 9.8-16.5 11.4-2.2 1.6-5.6 4.1-7.5 5.4-1.9 1.3-4.4 3.1-5.5 4-2 1.5-1.9 1.7 4.2 19.7 3.9 11.6 6 19.2 5.7 20.8-0.3 1.4-1.3 3.5-2.2 4.8-1 1.3-3.5 2.7-5.7 3.2-3.5 0.7-4.5 0.5-8-2-3.7-2.6-4.3-3.7-8.3-15.6-2.4-7.1-4.7-13.6-5.2-14.4-0.6-1.2-3.9 1-16.2 10.8-8.4 6.7-16.2 13-17.3 14-1.1 1-5.8 4.9-10.5 8.7-4.6 3.9-9.2 7.7-10 8.5-0.9 0.8-4.5 4.2-8.1 7.4-3.5 3.2-9.1 8.5-12.4 11.6-3.3 3.1-7.6 7.5-9.6 9.6l-3.6 3.9c14.6 42.6 19.8 58.6 20.9 63 2 7.6 2 8.2 0.4 11.7-1.3 3.1-2.3 4-5.6 4.8-3.6 0.9-4.5 0.7-8.5-1.8l-4.4-2.7c-14.2-42.6-18.8-55.4-19.3-56-0.6-0.7-1.3-0.3-2.1 1-0.6 1.1-2 2.9-3.2 4-1.1 1-3.4 3.8-5 6.1-1.6 2.3-4.2 5.7-5.7 7.5-1.4 1.9-4.1 6.1-5.8 9.4-1.8 3.3-4 7.6-5 9.5-1 1.9-2.8 7.1-4 11.5-1.5 5.6-2 9.3-1.5 12.5 0.3 2.5 2.2 12.4 4 22 1.9 9.6 4.5 24 5.9 32 1.3 8 2.7 17.4 3.1 21 0.3 3.6 1.1 7.2 1.6 8 0.8 1.3 1 1.3 1.9 0 0.5-0.8 8.2-12.6 17.2-26.2 9.3-14 17.3-25.2 18.6-25.8 1.2-0.5 3.9-0.7 6-0.4 2 0.4 4.7 1.6 6 2.8 1.2 1.1 2.5 3.5 2.8 5.1 0.3 1.7-0.1 4.5-0.9 6.5-0.8 1.9-8.5 14.1-17.1 27-12 18.3-15.1 23.6-13.8 23.8 0.9 0.2 6.4-1 12.2-2.7 5.8-1.6 15.7-4.1 22-5.5 6.3-1.4 17.4-3.7 24.5-5.1 7.1-1.4 17-3.9 22-5.5 8.2-2.6 9.6-3.5 16.1-9.7 3.9-3.7 8-8.2 9.1-9.8 1.1-1.6 3.3-4.4 4.9-6.1 1.6-1.6 3.5-4.6 4.3-6.5 0.8-1.8 2.2-4.5 3.2-5.9 0.9-1.4 3.8-6.6 6.4-11.5 2.7-4.9 7.3-14.6 10.3-21.5 3-6.9 7.8-18.8 10.7-26.5 2.9-7.7 5.1-14.4 4.8-15-0.2-0.6-2.9-0.7-7.1-0.3-3.7 0.4-12.7 1.2-19.9 1.7-7.3 0.6-14.5 0.8-16 0.5-1.6-0.4-3.9-1.5-5.3-2.4-1.8-1.2-2.7-3.1-3.2-6.4-0.6-3.6-0.4-5.1 1-7.1 0.9-1.3 3.1-2.9 4.7-3.5 1.6-0.5 14.3-1.9 28-3 13.8-1.1 25.3-2.3 25.6-2.7 0.4-0.5 2.7-7.8 5.2-16.3 2.6-8.5 5.6-19.1 6.7-23.5 1.2-4.4 4.1-15.9 6.5-25.5 2.4-9.6 5.6-22.4 7-28.5 1.5-6.1 2.8-12.4 2.9-14 0.2-1.6 0.8-4.8 1.4-7 0.5-2.2 1-4.7 1-5.5 0-0.8 0.7-4.7 1.5-8.5 0.8-3.8 1.8-10.2 2.2-14 0.5-4.6 0.3-7.8-0.4-9.3-0.9-1.8-1.9-2.2-5.4-2.1-2.8 0-6 1.1-9.7 3.2zm-416.5 18.7c-28.3 0.3-47.8 0.9-48.9 1.5-1 0.6-2.8 2.8-3.9 5-1.9 3.9-1.9 5.7-1.2 96.5 0.4 52.5 0.2 151.8-0.4 229.8l-1.1 137.2c-5.4 32.9-7.2 46.3-7.6 51-0.7 8-0.6 8.6 1.4 9.8 1.2 0.6 3.4 1.2 4.9 1.2 1.6 0 5.9-1.2 9.8-2.8 3.9-1.6 17.8-7.6 31-13.5 13.2-5.8 43.8-19.1 68-29.7 24.2-10.5 51-22.3 59.5-26.2 8.5-3.8 18.4-8.1 22-9.4 6.3-2.4 7.3-2.4 35-2.4 15.7 0 61.4-0.3 101.5-0.7 72.8-0.7 73-0.7 75.5-2.9 1.4-1.1 3.2-4.1 4-6.5 1.2-3.6 1.5-14.8 1.9-59.9 0.3-30.5 0.4-66.1 0.3-79-0.1-12.9-0.4-23.7-0.7-24-0.2-0.3-2.4 1.1-4.7 3.1-2.4 1.9-6.6 4.8-9.3 6.3-2.8 1.5-8.1 3.6-12 4.7-3.9 1-13.5 3.3-21.5 5-8 1.6-17.6 3.6-21.5 4.4-3.9 0.8-10.4 2.3-14.5 3.4-4.1 1-13.6 3.5-21 5.5-7.4 1.9-16.6 4.1-20.3 4.8l-6.9 1.3c-27.7 42.2-36.6 54.9-37.6 55.4-0.9 0.5-3.1 1-4.7 1.2-1.6 0.2-43.9-0.1-93.8-0.6-78.6-0.9-91-1.2-92.2-2.5-0.8-0.8-1.7-3.8-2.1-6.5-0.6-4.5-0.4-5.2 1.7-7.1 2.4-2 3.6-2 90.9-2.8l88.5-0.8 32.5-48.8c-2.3-5.8-4.3-17.4-6-29.5-1.7-12.1-3.7-25.8-4.6-30.5l-1.5-8.5c-189.6-1.5-197.5-1.7-199.1-3.3-0.9-0.9-2-4-2.4-6.7-0.6-4.5-0.4-5.2 1.7-7.1 2.4-2 3.7-2 98.7-3 53-0.5 96.6-1.2 96.8-1.7 0.2-0.4-0.1-1.6-0.6-2.7-0.6-1.1-1.5-7.4-2-14-1-11.5-0.9-12.4 1.6-21.3 1.4-5 3.9-11.9 5.5-15.2 1.6-3.3 7.1-12.3 12.2-19.9 5-7.7 10.3-15.1 11.7-16.5 1.4-1.5 3.9-4.4 5.5-6.4 1.6-2.1 4.8-5.7 7-8.1 2.2-2.3 5.5-5.9 7.2-7.9 1.8-2 3.3-3.9 3.3-4.2 0-0.3-55.2-0.8-122.6-1.3-107-0.6-122.7-0.9-123.9-2.2-0.8-0.8-1.7-3.8-2.1-6.5-0.6-4.5-0.4-5.2 1.7-7.1 2.4-2 3.2-2 135.9-2.9l133.5-0.8c5.7-5.6 9.3-8.8 11.7-10.9 2.4-2 5.4-4.7 6.8-6 1.4-1.2 5-4.3 8-6.8 3-2.4 6.4-5.2 7.5-6.2 1.1-1 3-2.6 4.1-3.5 1.2-1 3.6-2.9 5.4-4.3 1.9-1.4 4.4-3.4 5.6-4.5 1.2-1.1 3.5-2.9 5.1-4 1.5-1.1 6.3-5.4 10.5-9.5 6.8-6.6 7.8-7.9 7.8-11 0-1.9-0.5-4.2-1-5-0.8-1.3-7.7-1.6-48.2-2.1-26-0.4-89.8-0.6-141.8-0.6-52 0.1-115.6 0.4-141.5 0.7z"/>
</svg>